<?xml version="1.0" encoding="utf-8"?>
<!-- Generator: Adobe Illustrator 26.5.0, SVG Export Plug-In . SVG Version: 6.00 Build 0)  -->
<svg version="1.1" id="Layer_1" xmlns="http://www.w3.org/2000/svg" xmlns:xlink="http://www.w3.org/1999/xlink" x="0px" y="0px"
	 viewBox="0 0 290 45" style="enable-background:new 0 0 290 45;" xml:space="preserve">
<g>
	<path d="M3.11,34.12c2.47-4.68,7.65-5.92,10.77-8.78c1.78-0.49,2.7,0.85,3.89,0.3c0.51-0.83,0.39-1.57-0.25-2.42
		C13,23.16,9.4,26.5,4.98,26.93l0.11,0.11c2.81-3.62,7.48-4.76,11.45-7.98c-3.82-0.66-6.48,1.13-9.37,1.03l0.13,0.12
		c1.67-3.08,5.87-1.87,7.91-4.82c-1.64-0.92-3.16,0.13-4.67,0.15c-0.69-1.15-0.6-2.19,0.68-3.35c4.73-1.23,9.57,0.39,14.76,0.83
		c-1.09,1.55-2.92,0.22-3.76,1.4c-0.47,1.03,0.67,1.39,0.81,2.15c-0.85,1.57-2.85,0.55-4.04,1.76c0.29,1.78,2.69,2.35,2.1,4.9
		c2.71-2,4.16-4.36,6.76-5.85c-0.33-2.6,1.88-4.61,2.18-7.83c-7.1-1.31-13.85-0.77-19.88,0.92c-2.38,1.66-1.97,3.73-2.74,5.78
		c-3.73-1.94-4.25-5.49-5.32-8.85C5.13,6.14,7.5,6.96,9.26,8.85c2.83-0.51,5.23-0.94,7.57-1.35c0.4-2.36-2.57-2.3-2.38-4.32
		c1.89-0.94,3.87-1.61,5.54-1.18c2.09,1.24,1.6,3.01,2.21,4.49c4.73,1.03,9.93-1.71,14.7,1.68c-1.32,3.84-5.02,5.07-7.71,7.25
		c-0.24,1.85,2.4,2.55,1.48,4.82c-2.27,2.05-6.12,1.58-8.84,4.3c1.57,0.96,3.22-0.11,4.96,0.64c3.19,2.8,6.8,5.74,9.6,9.63
		c-4.41-2.09-8.48-4.85-13.25-6.75c-0.71,3.53-0.42,7.17-2.98,9.96c-3.76,0.53-5.69-2.07-8.19-4.49c2.11-0.7,3.72,1.13,5.74,0.1
		c0.68-1.59,0.96-3.42,0.18-5.51C12.42,29.14,8.11,32.59,3.02,34L3.11,34.12z"/>
	<path d="M78.53,37.59c-1.9,1.09-3.13-0.5-4.51-1.22c-2.92-1.52-5.65-3.44-8.86-4.37c-3.08,1.67-4.23,5.19-7.12,6.89L58,38.97
		c0.73-3.49,3.7-5.82,4.95-9.47c-1.42-1.18-5.29,0.58-4.61-3.69c2.09-1.32,4.63-0.09,6.96-0.46c1.34-0.54,1.81-1.82,2.98-3.15
		c-1.55-0.7-3.49,0.04-4.11-1.66c-1.69-0.03-2.13,2.05-4.03,2.02c1.27-3.04,3.61-5.2,5.16-7.79c-0.6-0.9-1.12-1.69-1.68-2.54
		c-2.19,0.36-2.26,3.67-4.81,3.53l0.13,0.12c1.07-4.4,3.94-7.87,5.62-11.6c2.37-0.67,4.02-0.43,5.21,1.29
		c-0.15,1.72-2.37,1.88-2.56,4.05c2.58,0.9,5.71,0.11,8.61,1.86c-2.43,0.88-4.82,0.2-6.83,1.31c-0.78,1.62,1.25,1.62,1.55,2.62
		c0.02,1.5-2.41,1.22-2.1,3.01c1.88,0.93,3.84-0.58,5.83,0.18c-0.09,1.19-1.44,0.92-2.22,1.88c0.66,1.5,1.53,3.31-0.5,5.21
		c2.14,0.33,3.5,0.54,5.15,0.8c-2.88,2.22-6.69,0-9.32,3.08c5.37,0.7,7.4,5.45,11.08,8.05L78.53,37.59z"/>
	<path d="M223.92,34.06c1.79-7.54,6.58-13.56,11.91-19.62c-7.33,0.12-13.9,3.01-20.49,5.11c-2.24-0.77-3.45-2.2-4.16-4.64
		c9.32-2.27,18.77-2.21,27.82-2.94c2.1,0.9,3.32,2.11,4.12,4.22c-6.18,3.47-12.39,6.77-15.15,13.76c0.99,5.26,4.74,8.65,8.16,12.36
		C231.1,41.8,226.84,38.98,223.92,34.06z"/>
	<path d="M47.94,33.06c1.15,0,2.3,0,3.81,0c1.85-3.79,1.79-7.71,0.65-11.79c-4.73,4.61-6.48,10.75-9.74,16.06
		c1.41-7.19,3.54-14.18,5.68-20.9c-1.49-1.32-2.68,0.16-4.09-1c-0.88-1.2,0.23-2.26,1.01-3.2c2.65-1.05,5.06,0.2,8-0.09
		c-1.86-2.67-4.78-3.2-6.57-5.44c1.26-1.74,3.02-2.31,4.88-2.53c3.51,2.23,1.97,7.1,5.24,9.33c-0.79,1.26-2.52,0.49-3.6,1.42
		c-0.42,0.96,0.1,1.88,0.24,2.85c1.09,0.99,2.68-0.16,3.9,1.03c1.82,2.07-1.06,14.35-4.71,18.92c-2.13-0.99-3.86-2.36-4.6-4.74
		L47.94,33.06z"/>
	<path d="M256.38,21.67c-1.34-0.99-2.5-1.9-2.4-4.03c2.67-1.47,5.93-1.07,8.91-1.94c2.01-1.5,2.03-4.5,4.25-5.93
		c1.73-0.21,2.76,0.81,3.61,1.88c0.93,1.58-0.11,3.07,0.47,4.57c-4.74,2.32-6.74,6.89-9.53,10.73c-2.7,3.71-5.09,7.66-8.27,11.17
		c2.3-5.52,4.61-11.04,6.89-16.49C258.74,20.5,257.83,21.92,256.38,21.67z"/>
	<path d="M202.01,32.99c-6.28-3.02-11.59-7.61-17.67-10.96c-1.44-0.79-2.64-2.03-4.68-2.29c-3.87,2.69-5.3,7.6-8.75,11.08
		c-2.03-1.17-2.06-3.28-3.09-5.34c4.35-3.85,8.65-7.56,14.25-9.98c5.09,2.79,9.27,6.56,13.37,10.36c2.35,2.18,5.57,3.69,6.56,7.15
		L202.01,32.99z"/>
	<path d="M92.11,30.07c1.56,1.07,2.36-0.36,3.48,0.21c-0.68,2.65-1.57,5.2-3.58,7.27c-3.08-3.84-4.19-20.56-1.93-28.76
		c2.03-0.53,3.25,0.82,4.87,2.36C94.95,17.43,91.47,23.55,92.11,30.07z"/>
	<path d="M279.83,43.08c-5.21-0.84-10.15-2.39-14.89-5.1c1.2-3.05,3.67-4.09,5.96-5.88c0.07,1.46,0.12,2.53,0.16,3.44
		c2.47,3.17,6.23,4.54,8.63,7.49L279.83,43.08z"/>
	<path d="M271.14,24.41c0.51-2.36,1.4-3.46,3.09-4.27c3.67,0.68,7.13,2.39,10.95,4.27C280.29,24.41,275.91,24.41,271.14,24.41z"/>
	<path d="M196.15,18.29c-1.87-1.55-3.74-3.1-5.59-4.64c0.82-1.26,1.74-1.84,3.24-1.78C195.63,13.46,195.81,15.87,196.15,18.29z"/>
	<path d="M281.76,17.08c-2.03-1.57-3.72-2.87-5.4-4.18c0.31-1.94,1.72-1.78,2.94-2.07C280.5,12.77,281.52,14.56,281.76,17.08z"/>
	<path d="M202.09,16.35c-2.33-1.24-3.74-1.99-5.07-2.7c0.23-0.99,0.72-1.37,1.48-1.59C200.21,12.49,201.09,13.79,202.09,16.35z"/>
	<path d="M286.27,14.71c-1.39-0.78-3.04-1.15-4.04-2.63C285.15,11.39,285.15,11.39,286.27,14.71z"/>
	<path d="M272.83,15.53c0.4-0.41,0.83-0.45,1.32-0.14C273.77,16.06,273.33,16.03,272.83,15.53z"/>
	<path d="M7.18,20.1c-0.4,0.23-0.79,0.45-1.4,0.8c0.35-1.18,1.05-0.6,1.53-0.68L7.18,20.1z"/>
	<path d="M3.02,34c-0.11,0.5-0.37,0.8-1.03,0.69c0.03-0.87,0.53-0.8,1.12-0.57L3.02,34z"/>
	<path d="M58.81,15.77c-0.01,0.21-0.03,0.42-0.03,0.45c0,0,0.08-0.17,0.16-0.33L58.81,15.77z"/>
	<path d="M4.98,26.93c-0.12,0.23-0.23,0.46-0.36,0.71c-0.44-0.71,0.19-0.52,0.48-0.6L4.98,26.93z"/>
	<path d="M48.04,32.97c-0.22-0.12-0.44-0.25-0.68-0.38c0.67-0.4,0.66,0,0.58,0.47L48.04,32.97z"/>
	<path d="M201.99,33.01c0.94,0.07,1.05,0.58,0.69,1.33l0.11-0.14c-0.47-0.27-0.85-0.6-0.78-1.21
		C202.01,32.99,201.99,33.01,201.99,33.01z"/>
	<path d="M117.02,33.93c0.12,0.17,0.24,0.34,0.24,0.34c0-0.02-0.05-0.24-0.1-0.47L117.02,33.93z"/>
	<path d="M202.68,34.34c0.22-0.06,0.44-0.12,0.45-0.12c0.03,0-0.15-0.01-0.34-0.02C202.79,34.2,202.68,34.34,202.68,34.34z"/>
	<path d="M78.46,37.63c0,0.3,0,0.6,0,0.94c-0.81-0.43-0.04-0.67,0.07-0.98L78.46,37.63z"/>
	<path d="M58.04,38.89c-0.09,0.08-0.17,0.15-0.26,0.23c0.25,0.25,0.32,0.2,0.22-0.15C58,38.97,58.04,38.89,58.04,38.89z"/>
	<polygon points="279.7,43.03 280.08,43.13 279.83,43.08 	"/>
	<path d="M152.27,12.99c2.54-0.46,4.94-0.9,7.34-1.34c-0.01-0.15-0.03-0.3-0.04-0.44c-2.28,0-4.57,0-6.49,0
		c-1.67-1.04-0.69-2.89-2.44-3.95c-1.13-0.48-2.65-1.69-4.74-0.57c-0.44,1.31,0.79,2.92-0.62,4.37c-5.86,0.25-11.95,0.33-17.97,1.18
		c-0.12,2.05,1.21,2.84,2.62,4.02c5.79,0.07,11.08-2.67,16.7-2.08c0.49,1.78,0.77,3.2-0.02,4.6c-6.82-0.59-6.82-0.59-9.69,1.1
		c1.08,5.46,4.73,9.04,9.09,11.83c0.44,3.51-1.19,6.48-1.65,10.56c4.71-6.1,6.77-12.3,8.24-18.69c-0.59-1.32-1.13-2.52-1.61-3.59
		C151.43,17.56,151.85,15.3,152.27,12.99z M146.2,28.7c-3.2-1.87-3.33-4.62-4.22-6.86c1.14-1.98,2.73-1.73,4.5-1.38
		C147.98,23.11,147.37,25.63,146.2,28.7z"/>
	<g>
		<path d="M117.16,33.8c-0.07,0.03-0.14,0.05-0.2,0.07c0.02,0.02,0.04,0.04,0.06,0.06L117.16,33.8z"/>
		<path d="M113.15,30.24c2.4-4.73-1.22-11.2,3.58-16c-3.3-0.57-1.12-3.89-2.8-6c-0.94-1-2.34-2.09-4.36-1.92
			c-1.4,2.34,0.46,4.92-0.52,7.32c-2.49,1.35-5.53,0.58-7.9,1.81c0.11,2.3,1.4,2.92,2.77,3.34c2.06-0.19,3.7-1.72,5.95-1.34
			c0.12,3.95,0.59,7.8-0.01,11.88c-2.38-0.92-4.36-1.68-6.24-2.4c-2.38,0.83-3.78,2.27-4.41,4.71c3.36,3.26,5.88,7.67,11.05,7.31
			c2.01-1.72,1.79-3.87,3.11-5.31c1.16-0.11,2.35,0.67,3.57,0.22C115.83,32.72,114,32.36,113.15,30.24z M101.73,31.69
			c4.86-0.75,6.81-0.09,8.3,3.04C106.48,34.84,103.87,34.31,101.73,31.69z"/>
	</g>
</g>
</svg>
